<svg xmlns="http://www.w3.org/2000/svg" xmlns:xlink="http://www.w3.org/1999/xlink" width="500" zoomAndPan="magnify" viewBox="0 0 375 374.999991" height="500" preserveAspectRatio="xMidYMid meet" version="1.0"><defs><clipPath id="2b80a21f8f"><path d="M 171 0 L 235 0 L 235 126 L 171 126 Z M 171 0 " clip-rule="nonzero"/></clipPath><clipPath id="c9201b58fe"><path d="M 187.496094 0 L 375.234375 187.738281 L 187.496094 375.476562 L -0.238281 187.738281 Z M 187.496094 0 " clip-rule="nonzero"/></clipPath><clipPath id="cced4845a8"><path d="M 187.496094 0 L 375.234375 187.738281 L 187.496094 375.476562 L -0.238281 187.738281 Z M 187.496094 0 " clip-rule="nonzero"/></clipPath><clipPath id="8f618da807"><path d="M 171 187 L 235 187 L 235 298 L 171 298 Z M 171 187 " clip-rule="nonzero"/></clipPath><clipPath id="e590d8b892"><path d="M 187.496094 0 L 375.234375 187.738281 L 187.496094 375.476562 L -0.238281 187.738281 Z M 187.496094 0 " clip-rule="nonzero"/></clipPath><clipPath id="52c4453e11"><path d="M 187.496094 0 L 375.234375 187.738281 L 187.496094 375.476562 L -0.238281 187.738281 Z M 187.496094 0 " clip-rule="nonzero"/></clipPath><clipPath id="8233c4b7d7"><path d="M 203 125 L 329 125 L 329 188 L 203 188 Z M 203 125 " clip-rule="nonzero"/></clipPath><clipPath id="c8d16eaeca"><path d="M 187.496094 0 L 375.234375 187.738281 L 187.496094 375.476562 L -0.238281 187.738281 Z M 187.496094 0 " clip-rule="nonzero"/></clipPath><clipPath id="14837d61e3"><path d="M 187.496094 0 L 375.234375 187.738281 L 187.496094 375.476562 L -0.238281 187.738281 Z M 187.496094 0 " clip-rule="nonzero"/></clipPath><clipPath id="65251a810f"><path d="M 109 31 L 172 31 L 172 126 L 109 126 Z M 109 31 " clip-rule="nonzero"/></clipPath><clipPath id="a054467052"><path d="M 187.496094 0 L 375.234375 187.738281 L 187.496094 375.476562 L -0.238281 187.738281 Z M 187.496094 0 " clip-rule="nonzero"/></clipPath><clipPath id="4ef49d7adb"><path d="M 187.496094 0 L 375.234375 187.738281 L 187.496094 375.476562 L -0.238281 187.738281 Z M 187.496094 0 " clip-rule="nonzero"/></clipPath><clipPath id="d32c37c4fc"><path d="M 234 62 L 298 62 L 298 126 L 234 126 Z M 234 62 " clip-rule="nonzero"/></clipPath><clipPath id="71dcb2d9ec"><path d="M 187.496094 0 L 375.234375 187.738281 L 187.496094 375.476562 L -0.238281 187.738281 Z M 187.496094 0 " clip-rule="nonzero"/></clipPath><clipPath id="595c0430b7"><path d="M 187.496094 0 L 375.234375 187.738281 L 187.496094 375.476562 L -0.238281 187.738281 Z M 187.496094 0 " clip-rule="nonzero"/></clipPath><clipPath id="67d56489bd"><path d="M 328 156 L 375 156 L 375 204 L 328 204 Z M 328 156 " clip-rule="nonzero"/></clipPath><clipPath id="e34b14f099"><path d="M 187.496094 0 L 375.234375 187.738281 L 187.496094 375.476562 L -0.238281 187.738281 Z M 187.496094 0 " clip-rule="nonzero"/></clipPath><clipPath id="332d87b428"><path d="M 187.496094 0 L 375.234375 187.738281 L 187.496094 375.476562 L -0.238281 187.738281 Z M 187.496094 0 " clip-rule="nonzero"/></clipPath><clipPath id="4275c1a00e"><path d="M 234 187 L 329 187 L 329 266 L 234 266 Z M 234 187 " clip-rule="nonzero"/></clipPath><clipPath id="fcd2b0f5b8"><path d="M 187.496094 0 L 375.234375 187.738281 L 187.496094 375.476562 L -0.238281 187.738281 Z M 187.496094 0 " clip-rule="nonzero"/></clipPath><clipPath id="9c7a95139a"><path d="M 187.496094 0 L 375.234375 187.738281 L 187.496094 375.476562 L -0.238281 187.738281 Z M 187.496094 0 " clip-rule="nonzero"/></clipPath><clipPath id="c91ff49ef9"><path d="M 218 250 L 282 250 L 282 329 L 218 329 Z M 218 250 " clip-rule="nonzero"/></clipPath><clipPath id="63d337ce9a"><path d="M 187.496094 0 L 375.234375 187.738281 L 187.496094 375.476562 L -0.238281 187.738281 Z M 187.496094 0 " clip-rule="nonzero"/></clipPath><clipPath id="7a1ba03ed4"><path d="M 187.496094 0 L 375.234375 187.738281 L 187.496094 375.476562 L -0.238281 187.738281 Z M 187.496094 0 " clip-rule="nonzero"/></clipPath><clipPath id="015cdfb90b"><path d="M 31 203 L 110 203 L 110 266 L 31 266 Z M 31 203 " clip-rule="nonzero"/></clipPath><clipPath id="64e6ab0c33"><path d="M 187.496094 0 L 375.234375 187.738281 L 187.496094 375.476562 L -0.238281 187.738281 Z M 187.496094 0 " clip-rule="nonzero"/></clipPath><clipPath id="0c4db03885"><path d="M 187.496094 0 L 375.234375 187.738281 L 187.496094 375.476562 L -0.238281 187.738281 Z M 187.496094 0 " clip-rule="nonzero"/></clipPath><clipPath id="8ba34dab06"><path d="M 109 125 L 204 125 L 204 188 L 109 188 Z M 109 125 " clip-rule="nonzero"/></clipPath><clipPath id="5410a5cf4f"><path d="M 187.496094 0 L 375.234375 187.738281 L 187.496094 375.476562 L -0.238281 187.738281 Z M 187.496094 0 " clip-rule="nonzero"/></clipPath><clipPath id="8660668b36"><path d="M 187.496094 0 L 375.234375 187.738281 L 187.496094 375.476562 L -0.238281 187.738281 Z M 187.496094 0 " clip-rule="nonzero"/></clipPath><clipPath id="915fb4a3cd"><path d="M 0 93 L 110 93 L 110 204 L 0 204 Z M 0 93 " clip-rule="nonzero"/></clipPath><clipPath id="31fa42ea71"><path d="M 187.496094 0 L 375.234375 187.738281 L 187.496094 375.476562 L -0.238281 187.738281 Z M 187.496094 0 " clip-rule="nonzero"/></clipPath><clipPath id="d055e4a6b8"><path d="M 187.496094 0 L 375.234375 187.738281 L 187.496094 375.476562 L -0.238281 187.738281 Z M 187.496094 0 " clip-rule="nonzero"/></clipPath><clipPath id="d42b462cd7"><path d="M 93 187 L 172 187 L 172 298 L 93 298 Z M 93 187 " clip-rule="nonzero"/></clipPath><clipPath id="edd2fb3193"><path d="M 187.496094 0 L 375.234375 187.738281 L 187.496094 375.476562 L -0.238281 187.738281 Z M 187.496094 0 " clip-rule="nonzero"/></clipPath><clipPath id="55c477f68e"><path d="M 187.496094 0 L 375.234375 187.738281 L 187.496094 375.476562 L -0.238281 187.738281 Z M 187.496094 0 " clip-rule="nonzero"/></clipPath><clipPath id="55c2141ebe"><path d="M 140 281 L 219 281 L 219 375 L 140 375 Z M 140 281 " clip-rule="nonzero"/></clipPath><clipPath id="d2f78864b2"><path d="M 187.496094 0 L 375.234375 187.738281 L 187.496094 375.476562 L -0.238281 187.738281 Z M 187.496094 0 " clip-rule="nonzero"/></clipPath><clipPath id="6f192ea09f"><path d="M 187.496094 0 L 375.234375 187.738281 L 187.496094 375.476562 L -0.238281 187.738281 Z M 187.496094 0 " clip-rule="nonzero"/></clipPath></defs><path fill="#7e5f4c" d="M 0 375 L 375 375 L 375 0 L 0 0 Z M 15 15 L 360 15 L 360 360 L 15 360 Z M 15 15 " fill-opacity="1" fill-rule="nonzero"/><g clip-path="url(#2b80a21f8f)"><g clip-path="url(#c9201b58fe)"><g clip-path="url(#cced4845a8)"><path fill="#7e5f4c" d="M 203.144531 78.222656 L 234.433594 46.933594 L 187.5 0 L 171.855469 15.640625 L 203.144531 46.929688 L 171.855469 78.222656 L 218.789062 125.15625 L 234.433594 109.511719 Z M 203.144531 78.222656 " fill-opacity="1" fill-rule="nonzero"/></g></g></g><g clip-path="url(#8f618da807)"><g clip-path="url(#e590d8b892)"><g clip-path="url(#52c4453e11)"><path fill="#7e5f4c" d="M 203.144531 265.957031 L 234.433594 234.667969 L 187.5 187.734375 L 171.855469 203.382812 L 203.144531 234.667969 L 171.855469 265.957031 L 203.148438 297.246094 L 218.789062 281.605469 Z M 203.144531 265.957031 " fill-opacity="1" fill-rule="nonzero"/></g></g></g><g clip-path="url(#8233c4b7d7)"><g clip-path="url(#c8d16eaeca)"><g clip-path="url(#14837d61e3)"><path fill="#7e5f4c" d="M 250.078125 156.445312 L 281.367188 187.734375 L 328.300781 140.800781 L 312.65625 125.15625 L 281.371094 156.441406 L 250.085938 125.152344 L 203.144531 172.089844 L 218.789062 187.734375 Z M 250.078125 156.445312 " fill-opacity="1" fill-rule="nonzero"/></g></g></g><g clip-path="url(#65251a810f)"><g clip-path="url(#a054467052)"><g clip-path="url(#4ef49d7adb)"><path fill="#7e5f4c" d="M 140.566406 78.222656 L 171.855469 46.933594 L 156.210938 31.289062 L 109.277344 78.222656 L 156.210938 125.15625 L 171.855469 109.511719 Z M 140.566406 78.222656 " fill-opacity="1" fill-rule="nonzero"/></g></g></g><g clip-path="url(#d32c37c4fc)"><g clip-path="url(#71dcb2d9ec)"><g clip-path="url(#595c0430b7)"><path fill="#7e5f4c" d="M 250.078125 62.578125 L 297.015625 109.511719 L 281.367188 125.15625 L 234.433594 78.222656 Z M 250.078125 62.578125 " fill-opacity="1" fill-rule="nonzero"/></g></g></g><g clip-path="url(#67d56489bd)"><g clip-path="url(#e34b14f099)"><g clip-path="url(#332d87b428)"><path fill="#7e5f4c" d="M 343.949219 156.445312 L 375.238281 187.734375 L 359.589844 203.382812 L 328.300781 172.09375 Z M 343.949219 156.445312 " fill-opacity="1" fill-rule="nonzero"/></g></g></g><g clip-path="url(#4275c1a00e)"><g clip-path="url(#fcd2b0f5b8)"><g clip-path="url(#9c7a95139a)"><path fill="#7e5f4c" d="M 297.015625 234.667969 L 328.300781 203.378906 L 312.660156 187.734375 L 281.371094 219.023438 L 250.078125 187.734375 L 234.433594 203.378906 L 297.015625 265.957031 L 312.660156 250.3125 Z M 297.015625 234.667969 " fill-opacity="1" fill-rule="nonzero"/></g></g></g><g clip-path="url(#c91ff49ef9)"><g clip-path="url(#63d337ce9a)"><g clip-path="url(#7a1ba03ed4)"><path fill="#7e5f4c" d="M 250.078125 250.316406 L 234.433594 265.960938 L 250.078125 281.605469 L 218.789062 312.890625 L 234.4375 328.535156 L 281.367188 281.605469 Z M 250.078125 250.316406 " fill-opacity="1" fill-rule="nonzero"/></g></g></g><g clip-path="url(#015cdfb90b)"><g clip-path="url(#64e6ab0c33)"><g clip-path="url(#0c4db03885)"><path fill="#7e5f4c" d="M 109.273438 234.667969 L 93.632812 219.027344 L 77.988281 234.667969 L 46.695312 203.378906 L 31.054688 219.023438 L 77.988281 265.957031 Z M 109.273438 234.667969 " fill-opacity="1" fill-rule="nonzero"/></g></g></g><g clip-path="url(#8ba34dab06)"><g clip-path="url(#5410a5cf4f)"><g clip-path="url(#8660668b36)"><path fill="#7e5f4c" d="M 156.210938 156.445312 L 124.929688 125.164062 L 109.285156 140.8125 L 156.207031 187.734375 L 203.144531 140.800781 L 187.503906 125.15625 Z M 156.210938 156.445312 " fill-opacity="1" fill-rule="nonzero"/></g></g></g><g clip-path="url(#915fb4a3cd)"><g clip-path="url(#31fa42ea71)"><g clip-path="url(#d055e4a6b8)"><path fill="#7e5f4c" d="M 77.984375 203.382812 L 109.277344 172.089844 L 77.988281 140.800781 L 109.277344 109.511719 L 93.632812 93.867188 L -0.242188 187.742188 L 15.402344 203.386719 L 62.34375 156.445312 L 77.988281 172.085938 L 62.332031 187.726562 Z M 77.984375 203.382812 " fill-opacity="1" fill-rule="nonzero"/></g></g></g><g clip-path="url(#d42b462cd7)"><g clip-path="url(#edd2fb3193)"><g clip-path="url(#55c477f68e)"><path fill="#7e5f4c" d="M 124.921875 187.734375 L 109.269531 203.386719 L 140.558594 234.675781 L 93.632812 281.601562 L 109.28125 297.246094 L 171.855469 234.667969 Z M 124.921875 187.734375 " fill-opacity="1" fill-rule="nonzero"/></g></g></g><g clip-path="url(#55c2141ebe)"><g clip-path="url(#d2f78864b2)"><g clip-path="url(#6f192ea09f)"><path fill="#7e5f4c" d="M 156.207031 281.605469 L 140.554688 297.257812 L 187.492188 344.191406 L 171.855469 359.824219 L 187.503906 375.46875 L 218.789062 344.183594 Z M 156.207031 281.605469 " fill-opacity="1" fill-rule="nonzero"/></g></g></g></svg>